<?xml version="1.0" encoding="iso-8859-1"?>
<!-- Generator: Adobe Illustrator 17.1.0, SVG Export Plug-In . SVG Version: 6.00 Build 0)  -->
<!DOCTYPE svg PUBLIC "-//W3C//DTD SVG 1.1//EN" "http://www.w3.org/Graphics/SVG/1.1/DTD/svg11.dtd">
<svg version="1.1" id="Capa_1" xmlns="http://www.w3.org/2000/svg" xmlns:xlink="http://www.w3.org/1999/xlink" x="0px" y="0px"
	 viewBox="0 0 511 511" style="enable-background:new 0 0 511 511;" xml:space="preserve">
<g>
	<path d="M319.5,382.191c-4.142,0-7.5,3.358-7.5,7.5c0,9.098-7.402,16.5-16.5,16.5s-16.5-7.402-16.5-16.5s7.402-16.5,16.5-16.5
		c4.142,0,7.5-3.358,7.5-7.5s-3.358-7.5-7.5-7.5c-17.369,0-31.5,14.131-31.5,31.5s14.131,31.5,31.5,31.5s31.5-14.131,31.5-31.5
		C327,385.549,323.642,382.191,319.5,382.191z"/>
	<path d="M143.5,382.191c-4.142,0-7.5,3.358-7.5,7.5c0,9.098-7.402,16.5-16.5,16.5s-16.5-7.402-16.5-16.5s7.402-16.5,16.5-16.5
		c4.142,0,7.5-3.358,7.5-7.5s-3.358-7.5-7.5-7.5c-17.369,0-31.5,14.131-31.5,31.5s14.131,31.5,31.5,31.5s31.5-14.131,31.5-31.5
		C151,385.549,147.642,382.191,143.5,382.191z"/>
	<path d="M503.5,174.191H495v-10.234c9.29-3.138,16-11.93,16-22.266c0-3.028-1.82-5.759-4.615-6.923L328.908,60.819
		c-11.226-4.677-24.231-3.867-34.79,2.167L29.326,214.296C17.384,215.397,8,225.467,8,237.691v8.5H7.5c-4.142,0-7.5,3.358-7.5,7.5
		v131.185c0,15.574,11.627,28.98,27.045,31.184l35.394,5.056c0.36,0.051,0.717,0.076,1.07,0.076c0.29,0,0.575-0.023,0.858-0.055
		c10.953,19.128,31.555,32.055,55.132,32.055c23.577,0,44.179-12.926,55.132-32.054c0.285,0.033,0.574,0.054,0.868,0.054h64
		c0.294,0,0.583-0.021,0.868-0.054c10.953,19.128,31.555,32.054,55.132,32.054c35.014,0,63.5-28.486,63.5-63.5v-78
		c0-7.769-1.933-15.498-5.588-22.353L300,189.191h3.5c4.142,0,7.5-3.358,7.5-7.5s-3.358-7.5-7.5-7.5h-15.943
		c-0.005,0-0.01,0-0.015,0h-34.938l16.849-14.743c6.69,4.773,14.93,6.693,23.328,5.306c12.308-2.032,22.498-11.567,25.357-23.726
		c1.601-6.806,0.961-13.708-1.85-19.972c0.046-0.124,0.171-0.324,0.375-0.461l3.8-2.533L440,162.889v13.248
		c-4.765,2.647-8,7.728-8,13.555v112v32c0,8.547,6.953,15.5,15.5,15.5h0.5v32.5c0,4.142,3.358,7.5,7.5,7.5s7.5-3.358,7.5-7.5v-32.5
		h0.5c8.547,0,15.5-6.953,15.5-15.5v-28.894l21.803-21.803c1.407-1.406,2.197-3.314,2.197-5.303v-88.5h0.5
		c4.142,0,7.5-3.358,7.5-7.5S507.642,174.191,503.5,174.191z M455,174.191v-9h25v9H455z M209.198,192.24L175,222.163v-7.125
		L209.198,192.24z M160,235.288l-33,28.875v-17.124l33-22V235.288z M112,277.288l-19.698,17.236l-13.249-26.498
		c-1.228-2.456-2.688-4.737-4.336-6.834H103.5c1.48,0,2.928-0.438,4.16-1.26l4.34-2.893V277.288z M112,326.649
		c-1.139,0.135-2.268,0.301-3.388,0.495l-9.455-18.91c0.448-0.251,0.88-0.547,1.282-0.899L112,297.22V326.649z M64.368,358.245
		c-0.285-0.033-0.574-0.054-0.868-0.054H15v-97h28.723c9.339,0,17.736,5.189,21.914,13.543l28.401,56.803
		C81.522,337.039,71.115,346.462,64.368,358.245z M23,237.691c0-4.687,3.813-8.5,8.5-8.5s8.5,3.813,8.5,8.5v8.5H23V237.691z
		 M29.167,401.21C21.09,400.057,15,393.035,15,384.876v-11.685h43.187c-1.418,5.265-2.187,10.793-2.187,16.5
		c0,5.393,0.681,10.628,1.952,15.631L29.167,401.21z M119.5,438.191c-26.743,0-48.5-21.757-48.5-48.5s21.757-48.5,48.5-48.5
		s48.5,21.757,48.5,48.5S146.243,438.191,119.5,438.191z M180.813,406.191c1.418-5.265,2.187-10.793,2.187-16.5
		s-0.769-11.235-2.187-16.5h53.375c-1.418,5.265-2.187,10.793-2.187,16.5s0.769,11.235,2.187,16.5H180.813z M295.5,438.191
		c-26.743,0-48.5-21.757-48.5-48.5s21.757-48.5,48.5-48.5s48.5,21.757,48.5,48.5S322.243,438.191,295.5,438.191z M295.5,326.191
		c-23.577,0-44.179,12.926-55.132,32.054c-0.285-0.033-0.574-0.054-0.868-0.054h-64c-0.294,0-0.583,0.021-0.868,0.054
		c-9.774-17.068-27.232-29.183-47.632-31.596v-42.554l33.067-28.934c0.966,17.722,13.522,33.051,29.971,36.142
		c0.17,0.032,0.342,0.058,0.515,0.078l152.078,17.759c0.296,0.035,0.589,0.051,0.879,0.051c0.128,0,0.253-0.011,0.38-0.018
		c0.066,0.837,0.111,1.676,0.111,2.517v37.076C332.343,334.973,314.932,326.191,295.5,326.191z M283,189.191l55.672,104.385
		l-146.098-17.061C182.7,274.523,175,264.233,175,252.968v-10.873l60.461-52.904H283z M315.34,103.451l-6.997,4.664
		c-6.309,4.206-8.792,12.375-5.776,19.003c1.502,3.301,1.828,6.826,0.969,10.477c-1.467,6.236-6.894,11.319-13.199,12.36
		c-3.111,0.514-6.174,0.163-8.937-0.96l11.039-9.659c3.117-2.728,3.433-7.466,0.706-10.583c-2.728-3.117-7.466-3.433-10.583-0.706
		l-14.511,12.697c-3.962-0.957-8.181-0.312-11.759,2.073L101.229,246.191H55v-8.5c0-6.558-2.703-12.495-7.051-16.762L301.561,76.009
		c6.549-3.743,14.615-4.246,21.578-1.343l171.589,71.495c-1.5,2.417-4.179,4.03-7.228,4.03h-38.64l-126.727-47.522
		C319.875,101.821,317.347,102.113,315.34,103.451z M463.5,334.191h-16c-0.276,0-0.5-0.224-0.5-0.5v-24.5h17v24.5
		C464,333.967,463.776,334.191,463.5,334.191z M488,274.585l-19.606,19.606H447v-104.5c0-0.276,0.224-0.5,0.5-0.5H488V274.585z"/>
</g>
<g>
</g>
<g>
</g>
<g>
</g>
<g>
</g>
<g>
</g>
<g>
</g>
<g>
</g>
<g>
</g>
<g>
</g>
<g>
</g>
<g>
</g>
<g>
</g>
<g>
</g>
<g>
</g>
<g>
</g>
</svg>
