<svg height="512pt" viewBox="0 -55 512 512" width="512pt" xmlns="http://www.w3.org/2000/svg"><path d="m315.734375 290.132812c-18.851563 0-34.132813 15.28125-34.132813 34.132813s15.28125 34.132813 34.132813 34.132813 34.132813-15.28125 34.132813-34.132813-15.28125-34.132813-34.132813-34.132813zm0 51.199219c-9.425781 0-17.066406-7.640625-17.066406-17.066406s7.640625-17.066406 17.066406-17.066406 17.066406 7.640625 17.066406 17.066406-7.640625 17.066406-17.066406 17.066406zm0 0"/><path d="m128 358.398438c14.136719 0 25.601562-11.460938 25.601562-25.597657 0-14.140625-11.464843-25.601562-25.601562-25.601562s-25.601562 11.460937-25.601562 25.601562c0 14.136719 11.464843 25.597657 25.601562 25.597657zm0-34.132813c4.710938 0 8.535156 3.820313 8.535156 8.535156 0 4.710938-3.824218 8.53125-8.535156 8.53125s-8.535156-3.820312-8.535156-8.53125c0-4.714843 3.824218-8.535156 8.535156-8.535156zm0 0"/><path d="m485.9375 337.066406 24.917969-43.085937c1.527343-2.640625 1.527343-5.890625 0-8.53125l-24.917969-43.101563c-1.523438-2.640625-4.339844-4.269531-7.386719-4.269531h-49.75c-3.050781 0-5.867187 1.628906-7.390625 4.269531l-22.398437 38.867188-32.078125-29.636719v-31.28125c9.671875-3.363281 16.378906-12.199219 17.019531-22.417969s-4.910156-19.824218-14.085937-24.371094l42.566406-106.394531c3.660156-4.496093 5.671875-10.113281 5.699218-15.914062v-.09375c0-.085938 0-.152344 0-.238281-.179687-14.007813-11.589843-25.269532-25.597656-25.265626h-102.402344c-7.238281.019532-14.128906 3.125-18.945312 8.53125h-16.039062c-4.085938-19.851562-21.546876-34.1054682-41.816407-34.132812h-140.484375l-19.503906.316406c-17.515625.199219-33.109375 11.140625-39.253906 27.546875l-12.972656 34.363281c-1.984376 5.238282-1.265626 11.121094 1.917968 15.734376 3.183594 4.613281 8.425782 7.367187 14.03125 7.371093h25.046875c6.457031.027344 12.375-3.609375 15.265625-9.386719l12.347656-24.746093h57.890626c-25.550782 15.34375-44.425782 39.699219-52.90625 68.265625h-17.621094c-12.519532-.03125-23.210938 9.03125-25.226563 21.386718l-6.03125 36.285157c-6.308593 5.445312-9.527343 13.648437-8.613281 21.933593.914062 8.28125 5.84375 15.585938 13.183594 19.527344l18.09375 68.394532c2.496094 11.832031 12.96875 20.277343 25.0625 20.207031h.554687c-13.320312 27.765625-3.214843 61.105469 23.277344 76.800781h-46.191406c-4.710938 0-8.53125 3.820312-8.53125 8.535156 0 4.710938 3.820312 8.53125 8.53125 8.53125h452.265625c4.714844 0 8.535156-3.820312 8.535156-8.53125 0-4.714844-3.820312-8.535156-8.535156-8.535156h-154.757813c4.304688-2.402344 8.339844-5.265625 12.03125-8.535156h88.199219c11.257812-.011719 20.382812-9.136719 20.394531-20.394532-.019531-5.105468-1.976562-10.015624-5.476562-13.738281h14.695312c3.046875 0 5.863281-1.625 7.386719-4.265625zm-134.507812 23.84375c-14.824219 14.46875-36.910157 18.582032-55.945313 10.414063-19.039063-8.164063-31.28125-27-31.015625-47.710938.265625-20.714843 12.988281-39.226562 32.230469-46.902343 19.242187-7.671876 41.210937-2.996094 55.660156 11.851562 9.492187 9.703125 14.726563 22.785156 14.550781 36.355469-.175781 13.570312-5.75 26.511719-15.492187 35.964843zm6.96875-156.109375h-315.730469c-4.714844 0-8.535157-3.820312-8.535157-8.535156 0-4.710937 3.820313-8.53125 8.535157-8.53125h315.730469c4.714843 0 8.535156 3.820313 8.535156 8.53125 0 4.714844-3.820313 8.535156-8.535156 8.535156zm-57.496094-34.132812 72.191406-93.867188h17.066406l-37.546875 93.867188zm-5.800782-20.480469-2.792968-22.273438 38.359375-51.113281h20.90625zm-5.820312-46.609375-3.414062-27.214844c1.40625.265625 2.835937.410157 4.265624.4375h19.199219zm.851562-60.910156h102.402344c4.246094.035156 7.804688 3.222656 8.308594 7.441406l-3.0625 7.679687c-1.472656 1.234376-3.328125 1.921876-5.246094 1.945313h-102.402344c-4.710937 0-8.53125-3.820313-8.53125-8.535156 0-4.710938 3.820313-8.53125 8.53125-8.53125zm-23.339843 18.941406 8.160156 65.078125v.238281l5.511719 43.742188h-58.597656v-119.46875h42.667968c.007813 3.589843.78125 7.140625 2.257813 10.410156zm-197.066407-27.476563c-6.46875-.019531-12.390624 3.636719-15.265624 9.429688l-12.347657 24.703125h-25.046875l13.011719-34.363281c3.691406-9.832032 13.042969-16.394532 23.546875-16.519532l19.429688-.316406h140.277343c10.847657.011719 20.511719 6.847656 24.140625 17.066406zm119.285157 17.066407h15.789062v119.46875h-23.722656l6.484375-32.429688c.746094-4.535156-2.238281-8.847656-6.746094-9.75-4.507812-.902343-8.921875 1.929688-9.980468 6.40625l-7.167969 35.773438h-16.722657l6.484376-32.429688c.746093-4.535156-2.238282-8.847656-6.746094-9.75-4.511719-.902343-8.921875 1.929688-9.980469 6.40625l-7.167969 35.773438h-16.722656l6.484375-32.429688c.714844-3.035156-.28125-6.21875-2.601563-8.304687-2.316406-2.085938-5.589843-2.738282-8.53125-1.707032-2.941406 1.035157-5.085937 3.589844-5.59375 6.667969l-7.167968 35.773438h-16.214844l10.488281-41.875c11.351563-45.613281 52.332031-77.625 99.335938-77.59375zm-140.3125 92.449219c.691406-4.097657 4.234375-7.101563 8.390625-7.113282h13.0625l-8.53125 34.132813h-17.417969zm16.382812 139.359374-16.160156-61.140624h300.945313v43.367187c-21.097657-12.269531-47.144532-12.316406-68.289063-.125-21.144531 12.1875-34.15625 34.753906-34.113281 59.15625h-60.414063c-3.175781-22.253906-18.605469-40.832031-39.898437-48.042969-21.292969-7.210937-44.832032-1.832031-60.878906 13.910156h-12.714844c-4.171875-.023437-7.734375-3.019531-8.476563-7.125zm20.25 49.792969c0-23.566406 19.105469-42.667969 42.667969-42.667969s42.667969 19.101563 42.667969 42.667969c0 23.5625-19.105469 42.664063-42.667969 42.664063-23.550781-.027344-42.636719-19.113282-42.667969-42.664063zm73.277344 51.199219c15.414063-9.222656 25.859375-24.890625 28.441406-42.667969h62.660157c4.714843 18.148438 16.660156 33.566407 33.050781 42.667969zm290.328125-25.601562h-74.171875c14.757813-25.300782 11.597656-57.21875-7.832031-79.136719v-4.445313l67.507812 62.359375c.734375 1.113281 1.726563 2.027344 2.890625 2.671875l13.925781 12.871094c.660157.601562 1.027344 1.460938 1.007813 2.351562.011719.886719-.335937 1.742188-.960937 2.367188-.625.628906-1.480469.972656-2.367188.960938zm3.558594-34.132813 8.046875-32.050781c1.152343-4.570313-1.621094-9.207032-6.195313-10.359375-4.570312-1.148438-9.207031 1.625-10.359375 6.195312l-7.082031 28.203125-16.757812-15.488281-6.359376-11.09375 19.941407-34.523437h39.871093l19.984376 34.558593-19.984376 34.558594zm0 0"/><path d="m17.066406 384h-8.53125c-4.714844 0-8.535156 3.820312-8.535156 8.535156 0 4.710938 3.820312 8.53125 8.535156 8.53125h8.53125c4.714844 0 8.535156-3.820312 8.535156-8.53125 0-4.714844-3.820312-8.535156-8.535156-8.535156zm0 0"/></svg>