<?xml version="1.0" encoding="iso-8859-1"?>
<!-- Generator: Adobe Illustrator 19.0.0, SVG Export Plug-In . SVG Version: 6.00 Build 0)  -->
<svg version="1.1" id="Capa_1" xmlns="http://www.w3.org/2000/svg" xmlns:xlink="http://www.w3.org/1999/xlink" x="0px" y="0px"
	 viewBox="0 0 512.009 512.009" style="enable-background:new 0 0 512.009 512.009;" xml:space="preserve">
<g transform="translate(-1)">
	<g>
		<g>
			<path d="M504.476,494.938H9.542c-4.713,0-8.533,3.82-8.533,8.533s3.82,8.533,8.533,8.533h494.933c4.713,0,8.533-3.82,8.533-8.533
				S509.189,494.938,504.476,494.938z"/>
			<path d="M504.476,426.671h-93.867c-4.713,0-8.533,3.82-8.533,8.533s3.82,8.533,8.533,8.533h93.867
				c4.713,0,8.533-3.82,8.533-8.533S509.189,426.671,504.476,426.671z"/>
			<path d="M504.476,460.805h-93.867c-4.713,0-8.533,3.82-8.533,8.533s3.82,8.533,8.533,8.533h93.867
				c4.713,0,8.533-3.82,8.533-8.533S509.189,460.805,504.476,460.805z"/>
			<path d="M376.476,426.671H9.542c-4.713,0-8.533,3.82-8.533,8.533s3.82,8.533,8.533,8.533h366.933c4.713,0,8.533-3.82,8.533-8.533
				S381.189,426.671,376.476,426.671z"/>
			<path d="M9.542,477.871h93.867c4.713,0,8.533-3.82,8.533-8.533s-3.82-8.533-8.533-8.533H9.542c-4.713,0-8.533,3.82-8.533,8.533
				S4.83,477.871,9.542,477.871z"/>
			<path d="M376.476,460.805H137.542c-4.713,0-8.533,3.82-8.533,8.533s3.82,8.533,8.533,8.533h238.933
				c4.713,0,8.533-3.82,8.533-8.533S381.189,460.805,376.476,460.805z"/>
			<path d="M59.326,320.474c-1.343-2.754-4.059-4.576-7.117-4.775c-3.057-0.199-5.986,1.257-7.674,3.814
				c-1.688,2.557-1.876,5.822-0.492,8.556c1.633,3.279,3.478,6.449,5.521,9.489c2.683,3.756,7.866,4.698,11.699,2.126
				s4.926-7.726,2.466-11.632C62.103,325.621,60.632,323.09,59.326,320.474z"/>
			<path d="M52.209,290.138c0.042-37.685,30.582-68.224,68.267-68.267c4.713,0,8.533-3.821,8.533-8.533
				c0-4.713-3.82-8.533-8.533-8.533c-47.107,0.052-85.282,38.227-85.333,85.333c0,4.713,3.82,8.533,8.533,8.533
				S52.209,294.851,52.209,290.138z"/>
			<path d="M120.476,238.938c-28.277,0-51.2,22.923-51.2,51.2s22.923,51.2,51.2,51.2s51.2-22.923,51.2-51.2
				C171.648,261.873,148.741,238.966,120.476,238.938z M120.476,324.271c-18.851,0-34.133-15.282-34.133-34.133
				s15.282-34.133,34.133-34.133s34.133,15.282,34.133,34.133S139.327,324.271,120.476,324.271z"/>
			<path d="M504.476,392.538h-20.104c18.101-14.546,28.632-36.512,28.638-59.733c-0.015-21.804-9.327-42.567-25.6-57.079v-87.987
				c0.018-4.428-3.355-8.135-7.765-8.533l-128.768-11.674v-73.66h8.533c4.713,0,8.533-3.821,8.533-8.533s-3.82-8.533-8.533-8.533
				h-17.067c-4.713,0-8.533,3.82-8.533,8.533v80.649l-34.133-3.106V8.538c0-4.713-3.82-8.533-8.533-8.533H94.876
				c-4.713,0-8.533,3.82-8.533,8.533s3.821,8.533,8.533,8.533h17.067v119.467H94.876c-4.713,0-8.533,3.82-8.533,8.533
				s3.821,8.533,8.533,8.533h17.067v17.502c-52.01,3.637-95.627,40.639-107.695,91.36s10.212,103.401,55.01,130.072H9.542
				c-4.713,0-8.533,3.821-8.533,8.533s3.82,8.533,8.533,8.533h494.933c4.713,0,8.533-3.82,8.533-8.533
				S509.189,392.538,504.476,392.538z M443.974,227.264c0.256,0,0.521,0,0.777,0c4.713,0.21,8.703-3.441,8.913-8.154
				s-3.441-8.703-8.154-8.913l-145.835-13.184v-16.956l42.667,3.84l128,11.631v68.582c-18.206-9.128-39.302-10.612-58.607-4.124
				c-19.305,6.488-35.222,20.413-44.219,38.684h-93.44v-25.6c-0.02-20.716-4.794-41.151-13.952-59.733h30.618L443.974,227.264z
				 M197.276,17.071h85.333v153.6v25.6h-32.273c-13.429-19.593-31.711-35.367-53.06-45.781V17.071z M129.009,17.071h51.2v126.387
				c-13.761-4.57-28.166-6.907-42.667-6.921h-8.533V17.071z M129.009,153.605h8.533c65.95,0.07,119.396,53.516,119.467,119.467v25.6
				h-17.502c0.205-2.833,0.435-5.649,0.435-8.533c-0.097-62.607-48.488-114.531-110.933-119.031V153.605z M18.076,290.138
				c0-56.554,45.846-102.4,102.4-102.4s102.4,45.846,102.4,102.4s-45.846,102.4-102.4,102.4
				C63.947,392.477,18.137,346.667,18.076,290.138z M181.694,392.538c28.245-16.892,48.288-44.67,55.415-76.8h124.279
				c-6.65,28.598,3.72,58.472,26.658,76.8H181.694z M430.39,392.18c-30.583-2.95-53.92-28.651-53.914-59.376
				c0.006-7.626,1.481-15.179,4.343-22.246v-0.085c11.511-28.487,42.78-43.568,72.239-34.839s47.466,38.409,41.6,68.569
				C488.792,374.362,460.973,395.13,430.39,392.18z"/>
			<path d="M436.209,298.671c-18.851,0-34.133,15.282-34.133,34.133c0,18.851,15.282,34.133,34.133,34.133
				s34.133-15.282,34.133-34.133C470.343,313.953,455.06,298.671,436.209,298.671z M436.209,349.871
				c-9.426,0-17.067-7.641-17.067-17.067c0-9.426,7.641-17.067,17.067-17.067s17.067,7.641,17.067,17.067
				C453.276,342.23,445.635,349.871,436.209,349.871z"/>
		</g>
	</g>
</g>
<g>
</g>
<g>
</g>
<g>
</g>
<g>
</g>
<g>
</g>
<g>
</g>
<g>
</g>
<g>
</g>
<g>
</g>
<g>
</g>
<g>
</g>
<g>
</g>
<g>
</g>
<g>
</g>
<g>
</g>
</svg>
