<?xml version="1.0" encoding="iso-8859-1"?>
<!-- Generator: Adobe Illustrator 19.0.0, SVG Export Plug-In . SVG Version: 6.00 Build 0)  -->
<svg version="1.1" id="Capa_1" xmlns="http://www.w3.org/2000/svg" xmlns:xlink="http://www.w3.org/1999/xlink" x="0px" y="0px"
	 viewBox="0 0 512 512" style="enable-background:new 0 0 512 512;" xml:space="preserve">
<g>
	<g>
		<g>
			<path d="M503.467,494.933H409.6c-4.713,0-8.533,3.82-8.533,8.533S404.887,512,409.6,512h93.867c4.713,0,8.533-3.82,8.533-8.533
				S508.18,494.933,503.467,494.933z"/>
			<path d="M102.4,494.933H8.533c-4.713,0-8.533,3.82-8.533,8.533S3.82,512,8.533,512H102.4c4.713,0,8.533-3.82,8.533-8.533
				S107.113,494.933,102.4,494.933z"/>
			<path d="M375.467,494.933H136.533c-4.713,0-8.533,3.82-8.533,8.533s3.82,8.533,8.533,8.533h238.933
				c4.713,0,8.533-3.82,8.533-8.533S380.18,494.933,375.467,494.933z"/>
			<path d="M503.467,460.8h-43.52c32.355-20.24,52.021-55.703,52.053-93.867c0.073-53.353-37.845-99.201-90.265-109.142
				c-52.419-9.941-104.49,18.842-123.955,68.518s-0.811,106.172,44.407,134.491H225.655c3.071-5.166,4.709-11.057,4.745-17.067
				h42.667c3.173-0.001,6.083-1.763,7.556-4.573s1.264-6.206-0.542-8.816L204.8,321.596v-63.599L334.797,128h143.07
				c4.713,0,8.533-3.82,8.533-8.533v-51.2c-0.009-2.266-0.91-4.436-2.509-6.042L424.158,2.492c-1.599-1.595-3.766-2.491-6.025-2.492
				H256c-2.263,0-4.433,0.9-6.033,2.5l-59.733,59.733c-1.593,1.605-2.491,3.772-2.5,6.033v42.667H102.4
				c-1.232,0.021-2.443,0.312-3.55,0.853c-0.295,0.174-0.58,0.365-0.853,0.572c-0.744,0.429-1.415,0.973-1.988,1.613
				c-0.102,0.12-0.265,0.171-0.358,0.29l-59.733,76.8c-1.153,1.491-1.78,3.321-1.783,5.205V307.2h-25.6
				C3.82,307.2,0,311.021,0,315.733v51.2c0,4.713,3.82,8.533,8.533,8.533V435.2c0,4.713,3.82,8.533,8.533,8.533H43.52
				c1.316,6.209,4.014,12.043,7.893,17.067H8.533C3.82,460.8,0,464.621,0,469.333s3.82,8.533,8.533,8.533h494.933
				c4.713,0,8.533-3.82,8.533-8.533S508.18,460.8,503.467,460.8z M204.8,76.8h145.067c4.713,0,8.533-3.82,8.533-8.533
				s-3.82-8.533-8.533-8.533H216.866l42.667-42.667h155.068l42.667,42.667H384c-4.713,0-8.533,3.82-8.533,8.533
				S379.287,76.8,384,76.8h85.333v34.133H204.8V76.8z M204.8,128h57.737L204.8,185.737V128z M204.8,209.869L286.669,128h23.996
				L204.8,233.865V209.869z M85.333,460.8c-14.138,0-25.6-11.462-25.6-25.6s11.461-25.6,25.6-25.6s25.6,11.461,25.6,25.6
				S99.472,460.8,85.333,460.8z M119.245,460.8c3.882-5.023,6.583-10.857,7.902-17.067h34.987c0.035,6.01,1.673,11.901,4.745,17.067
				H119.245z M196.267,460.8c-9.426,0-17.067-7.641-17.067-17.067s7.641-17.067,17.067-17.067s17.067,7.641,17.067,17.067
				S205.692,460.8,196.267,460.8z M196.267,409.598c-12.151,0-23.368,6.515-29.389,17.069h-39.731
				c-4.038-19.885-21.522-34.176-41.813-34.176s-37.775,14.291-41.813,34.176H25.6v-51.2h110.933c4.713,0,8.533-3.82,8.533-8.533
				s-3.82-8.533-8.533-8.533H17.067v-34.133h145.067c4.713,0,8.533-3.82,8.533-8.533s-3.82-8.533-8.533-8.533h-51.2v-59.733
				c0-4.713-3.82-8.533-8.533-8.533s-8.533,3.82-8.533,8.533V307.2H51.2V199.194l42.667-54.852v68.992
				c0,4.713,3.82,8.533,8.533,8.533s8.533-3.821,8.533-8.533V128h76.8v256c0,4.713,3.82,8.533,8.533,8.533s8.533-3.82,8.533-8.533
				v-32.427l51.985,75.093h-31.13C219.635,416.113,208.417,409.598,196.267,409.598z M402.253,460.74
				c-40.392-12.117-63.574-54.418-52.053-94.985c9.061-31.914,42.27-50.448,74.189-41.404c24.626,6.988,38.928,32.613,31.949,57.242
				c-2.559,9.026-8.599,16.665-16.791,21.238c-8.192,4.572-17.865,5.702-26.891,3.142c-6.788-1.92-12.535-6.459-15.974-12.618
				s-4.29-13.432-2.364-20.219c1.258-4.524-1.374-9.214-5.892-10.496c-4.517-1.282-9.221,1.326-10.527,5.837
				c-3.165,11.138-1.775,23.078,3.865,33.191c5.64,10.113,15.067,17.57,26.207,20.731c13.383,3.803,27.73,2.131,39.879-4.649
				c12.15-6.78,21.106-18.111,24.897-31.498c9.558-33.694-10.006-68.758-43.699-78.319c-40.987-11.622-83.636,12.178-95.266,53.163
				c-6.891,24.054-3.873,49.864,8.38,71.68c2.724,4.841,5.865,9.435,9.387,13.73c-39.556-24.702-54.94-74.724-36.102-117.385
				c18.838-42.661,66.17-64.989,111.073-52.396s73.722,56.277,67.629,102.513c-6.093,46.236-45.245,80.962-91.878,81.493
				L402.253,460.74z"/>
		</g>
	</g>
</g>
<g>
</g>
<g>
</g>
<g>
</g>
<g>
</g>
<g>
</g>
<g>
</g>
<g>
</g>
<g>
</g>
<g>
</g>
<g>
</g>
<g>
</g>
<g>
</g>
<g>
</g>
<g>
</g>
<g>
</g>
</svg>
