<?xml version="1.0" encoding="iso-8859-1"?>
<!-- Generator: Adobe Illustrator 17.1.0, SVG Export Plug-In . SVG Version: 6.00 Build 0)  -->
<!DOCTYPE svg PUBLIC "-//W3C//DTD SVG 1.1//EN" "http://www.w3.org/Graphics/SVG/1.1/DTD/svg11.dtd">
<svg version="1.1" id="Capa_1" xmlns="http://www.w3.org/2000/svg" xmlns:xlink="http://www.w3.org/1999/xlink" x="0px" y="0px"
	 viewBox="0 0 511 511" style="enable-background:new 0 0 511 511;" xml:space="preserve">
<g>
	<path d="M487.5,324h-19.001c-13.261-23.209-36.915-38.021-63.531-39.813l-5.807-17.422c4.894-4.393,7.839-10.737,7.839-17.502
		v-10.556c0-9.846-6.217-18.721-15.469-22.085l-56-20.363c-7.198-2.618-15.24-1.557-21.513,2.837
		c-0.845,0.592-1.64,1.238-2.39,1.926l-5.521-5.521l10.697-10.697c2.929-2.929,2.929-7.678,0-10.606
		c-2.929-2.929-7.678-2.929-10.606,0l-32,32c-2.929,2.929-2.929,7.678,0,10.606c1.464,1.464,3.384,2.197,5.303,2.197
		s3.839-0.732,5.303-2.197l10.697-10.697l8.768,8.768c-0.171,1.141-0.268,2.298-0.268,3.469V291.5c0,1.237,0.3,2.405,0.83,3.434
		l-2.901,1.339c-5.284,2.438-11.152,3.728-16.972,3.728H255v-48.5c0-12.958-10.542-23.5-23.5-23.5h-36.413L191,187.125V115h128.5
		c12.958,0,23.5-10.542,23.5-23.5S332.458,68,319.5,68h-144C162.542,68,152,78.542,152,91.5l0.003,9.363
		c0.002,3.402,0.004,5.784,0,6.387c-0.019,0.557,0.025,1.123,0.136,1.689c0.688,3.521,3.773,6.061,7.361,6.061H176v66.56
		l-93.657,22.037c-25.194,5.928-45.262,25.071-52.373,49.957L9.497,325.211C3.923,327.562,0,333.081,0,339.5v18.456
		c0,6.425,4.042,12.257,10.058,14.513l58.809,22.053c0.535,0.201,1.078,0.329,1.622,0.403C82.695,423.175,110.821,443,143.5,443
		c38.533,0,70.74-27.56,77.972-64H288v0.5c0,12.958,10.542,23.5,23.5,23.5h19.001c14.163,24.787,40.181,40,68.999,40
		c32.899,0,62.43-20.379,74.196-50.929l15.255-2.542C501.315,387.468,511,376.035,511,363.5v-16C511,334.542,500.458,324,487.5,324z
		 M167,91.5c0-4.687,3.813-8.5,8.5-8.5h144c4.687,0,8.5,3.813,8.5,8.5s-3.813,8.5-8.5,8.5H167.003L167,91.5z M450.518,324H348.494
		c12.084-15.642,30.742-24.993,50.985-25c0.007,0,0.013,0.002,0.02,0.002c0.007,0,0.013-0.002,0.02-0.002
		C419.846,299.006,438.453,308.343,450.518,324z M322.624,211.381c1.463-1.025,3.141-1.549,4.848-1.549
		c0.98,0,1.97,0.173,2.933,0.523l56,20.363c3.347,1.217,5.595,4.427,5.595,7.989v10.556c0,3.304-1.938,6.333-4.938,7.718
		L319,288.394v-70.05C319,215.532,320.321,212.994,322.624,211.381z M231.5,243c4.687,0,8.5,3.813,8.5,8.5v48.015
		c-1.188-0.416-2.28-1.088-3.196-2.004c-0.162-0.162-0.331-0.316-0.507-0.463l-27.609-22.969
		c-6.458-6.564-10.513-15.208-11.43-24.375l-0.67-6.705H231.5z M15.324,358.424C15.13,358.352,15,358.164,15,357.956V339.5
		c0-0.274,0.221-0.495,0.494-0.499c0.003,0,0.007,0.001,0.01,0.001c0.008,0,0.016-0.002,0.024-0.002H67.88
		c-2.508,7.722-3.88,15.952-3.88,24.5c0,4.647,0.424,9.194,1.192,13.625L15.324,358.424z M143.5,428
		c-35.565,0-64.5-28.935-64.5-64.5s28.935-64.5,64.5-64.5c24.367,0,45.617,13.585,56.586,33.576c0.236,1.635,0.99,3.101,2.102,4.217
		c3.721,8.144,5.812,17.183,5.812,26.707C208,399.065,179.065,428,143.5,428z M222.987,364c0.001-0.167,0.013-0.332,0.013-0.5
		c0-8.548-1.372-16.778-3.88-24.5h52.38c4.142,0,7.5-3.358,7.5-7.5s-3.358-7.5-7.5-7.5h-59.052c-13.732-23.876-39.484-40-68.948-40
		c-29.681,0-55.598,16.361-69.252,40.527C73.396,324.191,72.471,324,71.5,324H25.443l18.95-66.325
		c5.619-19.666,21.477-34.792,41.385-39.477l91.11-21.438l5.443,54.437c1.271,12.712,6.947,24.688,15.98,33.722
		c0.162,0.162,0.331,0.316,0.507,0.462l27.645,22.999c4.407,4.272,10.197,6.62,16.35,6.62h42.144c7.975,0,16.017-1.767,23.258-5.108
		l77.575-35.804l3.523,10.568c-24.604,3.141-46.338,17.552-58.811,39.344H311.5c-12.958,0-23.5,10.542-23.5,23.5V364H222.987z
		 M399.5,428c-20.334,0-38.949-9.338-51.018-25H391.5c9.165,0,23.976-1.226,33.015-2.732l31.241-5.207
		C444.484,415.121,423.057,428,399.5,428z M496,363.5c0,5.139-4.446,10.388-9.515,11.232l-64.435,10.739
		C413.827,386.842,399.837,388,391.5,388h-80c-4.687,0-8.5-3.813-8.5-8.5v-32c0-4.687,3.813-8.5,8.5-8.5h152.486
		c0.012,0,0.024,0.002,0.036,0.002c0.014,0,0.029-0.002,0.043-0.002H487.5c4.687,0,8.5,3.813,8.5,8.5V363.5z"/>
	<path d="M172.616,348.226c-4.011,1.034-6.424,5.124-5.39,9.135c0.514,1.991,0.774,4.057,0.774,6.139
		c0,13.509-10.991,24.5-24.5,24.5S119,377.009,119,363.5s10.991-24.5,24.5-24.5c2.081,0,4.144,0.26,6.133,0.772
		c4.009,1.033,8.1-1.381,9.133-5.393c1.033-4.011-1.382-8.1-5.393-9.133c-3.21-0.827-6.532-1.246-9.874-1.246
		c-21.78,0-39.5,17.72-39.5,39.5s17.72,39.5,39.5,39.5s39.5-17.72,39.5-39.5c0-3.344-0.42-6.67-1.249-9.884
		C180.717,349.605,176.624,347.192,172.616,348.226z"/>
	<path d="M399.5,356c-1.97,0-3.91,0.8-5.3,2.2c-1.4,1.39-2.2,3.33-2.2,5.3c0,1.98,0.8,3.91,2.2,5.3c1.39,1.4,3.33,2.2,5.3,2.2
		c1.98,0,3.91-0.8,5.3-2.2c1.4-1.39,2.2-3.32,2.2-5.3c0-1.97-0.8-3.91-2.2-5.3C403.41,356.8,401.47,356,399.5,356z"/>
</g>
<g>
</g>
<g>
</g>
<g>
</g>
<g>
</g>
<g>
</g>
<g>
</g>
<g>
</g>
<g>
</g>
<g>
</g>
<g>
</g>
<g>
</g>
<g>
</g>
<g>
</g>
<g>
</g>
<g>
</g>
</svg>
