<?xml version="1.0" encoding="iso-8859-1"?>
<!-- Generator: Adobe Illustrator 17.1.0, SVG Export Plug-In . SVG Version: 6.00 Build 0)  -->
<!DOCTYPE svg PUBLIC "-//W3C//DTD SVG 1.1//EN" "http://www.w3.org/Graphics/SVG/1.1/DTD/svg11.dtd">
<svg version="1.1" id="Capa_1" xmlns="http://www.w3.org/2000/svg" xmlns:xlink="http://www.w3.org/1999/xlink" x="0px" y="0px"
	 viewBox="0 0 511 511" style="enable-background:new 0 0 511 511;" xml:space="preserve">
<g>
	<path d="M119.5,252C84.486,252,56,280.486,56,315.5S84.486,379,119.5,379s63.5-28.486,63.5-63.5S154.514,252,119.5,252z M119.5,364
		C92.757,364,71,342.243,71,315.5S92.757,267,119.5,267s48.5,21.757,48.5,48.5S146.243,364,119.5,364z"/>
	<path d="M143.5,308c-4.142,0-7.5,3.358-7.5,7.5c0,9.098-7.402,16.5-16.5,16.5s-16.5-7.402-16.5-16.5s7.402-16.5,16.5-16.5
		c4.142,0,7.5-3.358,7.5-7.5s-3.358-7.5-7.5-7.5c-17.369,0-31.5,14.131-31.5,31.5s14.131,31.5,31.5,31.5s31.5-14.131,31.5-31.5
		C151,311.358,147.642,308,143.5,308z"/>
	<path d="M391.5,252c-35.014,0-63.5,28.486-63.5,63.5s28.486,63.5,63.5,63.5s63.5-28.486,63.5-63.5S426.514,252,391.5,252z
		 M391.5,364c-26.743,0-48.5-21.757-48.5-48.5s21.757-48.5,48.5-48.5s48.5,21.757,48.5,48.5S418.243,364,391.5,364z"/>
	<path d="M415.5,308c-4.142,0-7.5,3.358-7.5,7.5c0,9.098-7.402,16.5-16.5,16.5s-16.5-7.402-16.5-16.5s7.402-16.5,16.5-16.5
		c4.142,0,7.5-3.358,7.5-7.5s-3.358-7.5-7.5-7.5c-17.369,0-31.5,14.131-31.5,31.5s14.131,31.5,31.5,31.5s31.5-14.131,31.5-31.5
		C423,311.358,419.642,308,415.5,308z"/>
	<path d="M503,261.945v-33.582c0-7.157-1.946-14.185-5.629-20.322l-34.118-56.863C456.156,139.349,443.177,132,429.382,132H359.5
		c-12.958,0-23.5,10.542-23.5,23.5V204h-25.923l21.56-82.646c0.976-3.741,4.358-6.354,8.224-6.354H455.5c4.142,0,7.5-3.358,7.5-7.5
		s-3.358-7.5-7.5-7.5H339.861c-10.139,0-19.062,6.504-22.258,16H7.5c-4.142,0-7.5,3.358-7.5,7.5s3.358,7.5,7.5,7.5h13.427
		l116.643,90.722c-5.854-1.125-11.893-1.722-18.07-1.722C66.841,220,24,262.841,24,315.5S66.841,411,119.5,411
		c42.992,0,79.435-28.558,91.368-67.699c3.651,2.337,7.984,3.699,12.632,3.699h64c4.648,0,8.981-1.362,12.632-3.699
		C312.065,382.442,348.508,411,391.5,411c52.659,0,95.5-42.841,95.5-95.5c0-0.176-0.006-0.35-0.007-0.525
		c0.168,0.011,0.336,0.025,0.507,0.025h8c8.547,0,15.5-6.953,15.5-15.5v-24C511,269.673,507.765,264.592,503,261.945z M472.654,196
		H391.5c-4.687,0-8.5-3.813-8.5-8.5V171h72.5c0.69,0,1.354-0.101,1.989-0.275L472.654,196z M351,155.5c0-4.687,3.813-8.5,8.5-8.5
		h69.882c7.364,0,14.346,3.382,18.957,9H375.5c-4.142,0-7.5,3.358-7.5,7.5v24c0,12.958,10.542,23.5,23.5,23.5h88
		c0.69,0,1.354-0.101,1.989-0.275l3.02,5.034c2.284,3.807,3.491,8.166,3.491,12.605V260h-16.5c-0.732,0-1.438,0.11-2.106,0.305
		C452.072,235.932,423.612,220,391.5,220c-14.471,0-28.197,3.241-40.5,9.026V155.5z M336,219v16.5c0,0.732,0.11,1.438,0.305,2.106
		c-17.037,12.107-29.944,29.658-36.174,50.093c-3.204-2.051-6.935-3.345-10.942-3.632L306.164,219H336z M313.619,131l-39.913,153
		h-16.498l35.115-134.607c1.045-4.008-1.356-8.105-5.364-9.15c-4.009-1.047-8.104,1.356-9.15,5.364l-36.041,138.155l-13.715-10.667
		l32.27-123.702c1.045-4.008-1.356-8.104-5.364-9.15c-4.008-1.047-8.104,1.356-9.15,5.364l-30.643,117.464l-13.715-10.667
		l26.873-103.011c1.045-4.008-1.356-8.105-5.364-9.15c-4.009-1.047-8.104,1.356-9.15,5.363l-25.246,96.774l-13.715-10.667
		l21.475-82.32c1.045-4.008-1.356-8.105-5.364-9.15c-4.008-1.046-8.104,1.356-9.15,5.364L161.96,221.69l-13.715-10.667
		l16.077-61.629c1.045-4.008-1.356-8.105-5.364-9.15c-4.01-1.047-8.104,1.356-9.15,5.364l-14.45,55.392l-13.783-10.72
		c0.115-0.289,0.233-0.577,0.313-0.885l10.435-40c1.045-4.008-1.356-8.105-5.364-9.15c-4.008-1.046-8.104,1.356-9.15,5.363
		l-9.053,34.702l-13.715-10.667l5.282-20.248c1.045-4.008-1.356-8.105-5.364-9.15c-4.01-1.046-8.104,1.356-9.15,5.363l-3.655,14.011
		L45.359,131H313.619z M205.918,274.882l12.455,9.688c-2.707,0.605-5.238,1.678-7.506,3.129
		C209.522,283.283,207.863,279.003,205.918,274.882z M119.5,396C75.112,396,39,359.888,39,315.5S75.112,235,119.5,235
		s80.5,36.112,80.5,80.5S163.888,396,119.5,396z M296,323.5c0,4.687-3.813,8.5-8.5,8.5h-64c-4.687,0-8.5-3.813-8.5-8.5v-16
		c0-4.687,3.813-8.5,8.5-8.5h16h7.974c0.01,0,0.021,0.002,0.031,0.002c0.008,0,0.016-0.002,0.023-0.002H279.5h8
		c4.687,0,8.5,3.813,8.5,8.5V323.5z M391.5,396c-44.388,0-80.5-36.112-80.5-80.5s36.112-80.5,80.5-80.5s80.5,36.112,80.5,80.5
		S435.888,396,391.5,396z M496,299.5c0,0.275-0.224,0.5-0.5,0.5h-8c-0.596,0-1.174,0.077-1.73,0.208
		c-1.433-8.868-4.092-17.331-7.797-25.208H495.5c0.276,0,0.5,0.225,0.5,0.5V299.5z"/>
	<path d="M231.5,308c-1.97,0-3.91,0.8-5.3,2.2c-1.4,1.39-2.2,3.33-2.2,5.3s0.8,3.91,2.2,5.3c1.39,1.4,3.33,2.2,5.3,2.2
		c1.97,0,3.91-0.8,5.3-2.2c1.4-1.39,2.2-3.33,2.2-5.3s-0.8-3.91-2.2-5.3C235.41,308.8,233.47,308,231.5,308z"/>
</g>
<g>
</g>
<g>
</g>
<g>
</g>
<g>
</g>
<g>
</g>
<g>
</g>
<g>
</g>
<g>
</g>
<g>
</g>
<g>
</g>
<g>
</g>
<g>
</g>
<g>
</g>
<g>
</g>
<g>
</g>
</svg>
