<?xml version="1.0" encoding="iso-8859-1"?>
<!-- Generator: Adobe Illustrator 17.1.0, SVG Export Plug-In . SVG Version: 6.00 Build 0)  -->
<!DOCTYPE svg PUBLIC "-//W3C//DTD SVG 1.1//EN" "http://www.w3.org/Graphics/SVG/1.1/DTD/svg11.dtd">
<svg version="1.1" id="Capa_1" xmlns="http://www.w3.org/2000/svg" xmlns:xlink="http://www.w3.org/1999/xlink" x="0px" y="0px"
	 viewBox="0 0 511 511" style="enable-background:new 0 0 511 511;" xml:space="preserve">
<g>
	<path d="M71.5,368c-4.142,0-7.5,3.358-7.5,7.5c0,4.687-3.813,8.5-8.5,8.5s-8.5-3.813-8.5-8.5s3.813-8.5,8.5-8.5
		c4.142,0,7.5-3.358,7.5-7.5s-3.358-7.5-7.5-7.5C42.542,352,32,362.542,32,375.5S42.542,399,55.5,399S79,388.458,79,375.5
		C79,371.358,75.642,368,71.5,368z"/>
	<path d="M167.5,368c-4.142,0-7.5,3.358-7.5,7.5c0,4.687-3.813,8.5-8.5,8.5s-8.5-3.813-8.5-8.5s3.813-8.5,8.5-8.5
		c4.142,0,7.5-3.358,7.5-7.5s-3.358-7.5-7.5-7.5c-12.958,0-23.5,10.542-23.5,23.5s10.542,23.5,23.5,23.5s23.5-10.542,23.5-23.5
		C175,371.358,171.642,368,167.5,368z"/>
	<path d="M423.5,368c-4.142,0-7.5,3.358-7.5,7.5c0,4.687-3.813,8.5-8.5,8.5s-8.5-3.813-8.5-8.5s3.813-8.5,8.5-8.5
		c4.142,0,7.5-3.358,7.5-7.5s-3.358-7.5-7.5-7.5c-12.958,0-23.5,10.542-23.5,23.5s10.542,23.5,23.5,23.5s23.5-10.542,23.5-23.5
		C431,371.358,427.642,368,423.5,368z"/>
	<path d="M510.991,263.321c-0.004-0.157-0.01-0.314-0.024-0.472c-0.009-0.108-0.023-0.215-0.037-0.321
		c-0.017-0.132-0.036-0.263-0.06-0.395c-0.025-0.134-0.055-0.265-0.087-0.396c-0.025-0.102-0.049-0.204-0.079-0.306
		c-0.044-0.155-0.096-0.306-0.15-0.456c-0.02-0.055-0.033-0.111-0.054-0.167l-32.11-83.487c-5.825-15.145-20.641-25.32-36.867-25.32
		H375.5c-7.023,0-13.332,3.101-17.642,8H343v-46.559c0-8.414-3.276-16.325-9.226-22.274l-8.971-8.971
		c-2.929-2.929-7.678-2.929-10.606,0c-2.929,2.929-2.929,7.678,0,10.607l8.971,8.97c3.116,3.117,4.833,7.26,4.833,11.668V160h-9
		v-16.5c0-8.547-6.953-15.5-15.5-15.5h-288C6.953,128,0,134.953,0,143.5v176c0,8.547,6.953,15.5,15.5,15.5h2.11
		C6.784,345.135,0,359.536,0,375.5C0,406.103,24.897,431,55.5,431c20.474,0,38.38-11.152,48-27.692
		c9.62,16.54,27.526,27.692,48,27.692c28.058,0,51.305-20.934,54.979-48H216v0.5c0,12.958,10.542,23.5,23.5,23.5h48
		c12.958,0,23.5-10.542,23.5-23.5V383h41.521c3.675,27.066,26.921,48,54.979,48c28.084,0,51.348-20.973,54.989-48.076
		c0.331,0.045,0.667,0.076,1.011,0.076h32c8.547,0,15.5-6.953,15.5-15.5v-104C511,263.44,510.992,263.381,510.991,263.321z M496,328
		h-8.5c-0.257,0-0.5-0.243-0.5-0.5v-8c0-0.257,0.243-0.5,0.5-0.5h8.5V328z M489.503,248H415.5c-9.098,0-16.5-7.402-16.5-16.5V199
		h71.657L489.503,248z M352.013,175c-0.003,0.167-0.013,0.333-0.013,0.5V320h-33V175H352.013z M15.5,320c-0.276,0-0.5-0.225-0.5-0.5
		v-176c0-0.275,0.224-0.5,0.5-0.5h288c0.276,0,0.5,0.225,0.5,0.5V320H15.5z M113.61,335c-3.957,3.704-7.368,7.979-10.11,12.692
		c-2.741-4.713-6.153-8.988-10.11-12.692H113.61z M55.5,416C33.168,416,15,397.832,15,375.5S33.168,335,55.5,335
		S96,353.168,96,375.5S77.832,416,55.5,416z M151.5,416c-22.332,0-40.5-18.168-40.5-40.5s18.168-40.5,40.5-40.5
		s40.5,18.168,40.5,40.5S173.832,416,151.5,416z M296,383.5c0,4.687-3.813,8.5-8.5,8.5h-48c-4.687,0-8.5-3.813-8.5-8.5v-16
		c0-4.687,3.813-8.5,8.5-8.5h48c4.687,0,8.5,3.813,8.5,8.5V383.5z M287.5,344h-48c-12.958,0-23.5,10.542-23.5,23.5v0.5h-9.521
		c-1.758-12.945-7.989-24.481-17.089-33H311.5h58.11c-9.1,8.519-15.332,20.055-17.089,33H311v-0.5
		C311,354.542,300.458,344,287.5,344z M407.5,416c-22.332,0-40.5-18.168-40.5-40.5s18.168-40.5,40.5-40.5s40.5,18.168,40.5,40.5
		S429.832,416,407.5,416z M495.5,368h-32c-0.344,0-0.68,0.031-1.011,0.076C458.848,340.973,435.584,320,407.5,320H367V175.5
		c0-4.687,3.813-8.5,8.5-8.5h66.022c10.064,0,19.254,6.312,22.867,15.705l0.498,1.295H391.5c-4.142,0-7.5,3.358-7.5,7.5v40
		c0,17.369,14.131,31.5,31.5,31.5h79.772l0.728,1.893V304h-8.5c-8.547,0-15.5,6.953-15.5,15.5v8c0,8.547,6.953,15.5,15.5,15.5h8.5
		v24.5C496,367.775,495.776,368,495.5,368z"/>
	<path d="M247.5,368c-1.98,0-3.91,0.8-5.3,2.2c-1.4,1.39-2.2,3.33-2.2,5.3s0.8,3.91,2.2,5.3c1.39,1.4,3.33,2.2,5.3,2.2
		c1.97,0,3.91-0.8,5.3-2.2c1.4-1.39,2.2-3.33,2.2-5.3s-0.8-3.91-2.2-5.3C251.41,368.8,249.47,368,247.5,368z"/>
	<path d="M39.5,175h240c4.142,0,7.5-3.358,7.5-7.5s-3.358-7.5-7.5-7.5h-240c-4.142,0-7.5,3.358-7.5,7.5S35.358,175,39.5,175z"/>
	<path d="M39.5,207h240c4.142,0,7.5-3.358,7.5-7.5s-3.358-7.5-7.5-7.5h-240c-4.142,0-7.5,3.358-7.5,7.5S35.358,207,39.5,207z"/>
	<path d="M39.5,239h240c4.142,0,7.5-3.358,7.5-7.5s-3.358-7.5-7.5-7.5h-240c-4.142,0-7.5,3.358-7.5,7.5S35.358,239,39.5,239z"/>
	<path d="M39.5,271h240c4.142,0,7.5-3.358,7.5-7.5s-3.358-7.5-7.5-7.5h-240c-4.142,0-7.5,3.358-7.5,7.5S35.358,271,39.5,271z"/>
	<path d="M287,295.5c0-4.142-3.358-7.5-7.5-7.5h-240c-4.142,0-7.5,3.358-7.5,7.5s3.358,7.5,7.5,7.5h240
		C283.642,303,287,299.642,287,295.5z"/>
</g>
<g>
</g>
<g>
</g>
<g>
</g>
<g>
</g>
<g>
</g>
<g>
</g>
<g>
</g>
<g>
</g>
<g>
</g>
<g>
</g>
<g>
</g>
<g>
</g>
<g>
</g>
<g>
</g>
<g>
</g>
</svg>
