<?xml version="1.0"?>
<svg xmlns="http://www.w3.org/2000/svg" height="512px" viewBox="-52 0 512 512" width="512px"><g><path d="m138.199219 264.824219c20.199219 10.386719 42.949219 15.878906 65.800781 15.878906s45.605469-5.492187 65.804688-15.882813c4.988281-2.566406 8.128906-7.703124 8.136718-13.316406l.050782-34.558594c.011718-9.535156-3.746094-18.554687-10.582032-25.398437-6.847656-6.859375-16.300781-10.792969-25.925781-10.792969-12.460937 0-25.050781-.007812-37.640625-.015625-12.597656-.007812-25.195312-.015625-37.660156-.015625-9.660156 0-18.75 3.773438-25.59375 10.628906-6.835938 6.84375-10.59375 15.921876-10.578125 25.566407l.046875 34.585937c.007812 5.613282 3.148437 10.753906 8.140625 13.320313zm23.617187-52.273438c.683594-.683593 2.15625-1.828125 4.367188-1.828125 12.460937 0 25.050781.007813 37.640625.015625 12.597656.007813 25.195312.015625 37.660156.015625 1.722656 0 3.4375.726563 4.699219 1.992188.675781.675781 1.808594 2.117187 1.808594 4.160156l-.035157 25.027344c-13.882812 5.824218-28.628906 8.769531-43.957031 8.769531-15.324219 0-30.074219-2.945313-43.953125-8.769531l-.035156-25.058594c-.003907-2.1875 1.128906-3.648438 1.804687-4.324219zm0 0" data-original="#000000" class="active-path" data-old_color="#77b122" fill="#77b122"/><path d="m203.984375 167.636719c29.675781 0 53.816406-24.144531 53.816406-53.820313 0-29.671875-24.140625-53.816406-53.816406-53.816406s-53.816406 24.144531-53.816406 53.816406c0 29.675782 24.140625 53.820313 53.816406 53.820313zm0-77.636719c13.132813 0 23.816406 10.683594 23.816406 23.816406 0 13.132813-10.683593 23.816406-23.816406 23.816406s-23.816406-10.683593-23.816406-23.816406c0-13.132812 10.683593-23.816406 23.816406-23.816406zm0 0" data-original="#000000" class="active-path" data-old_color="#77b122" fill="#77b122"/><path d="m332.933594 331h-257.933594c-8.285156 0-15 6.71875-15 15 0 8.285156 6.714844 15 15 15h257.933594c8.285156 0 15-6.714844 15-15 0-8.28125-6.714844-15-15-15zm0 0" data-original="#000000" class="active-path" data-old_color="#77b122" fill="#77b122"/><path d="m244.164062 391h-169.164062c-8.285156 0-15 6.71875-15 15 0 8.285156 6.714844 15 15 15h169.164062c8.285157 0 15-6.714844 15-15 0-8.28125-6.714843-15-15-15zm0 0" data-original="#000000" class="active-path" data-old_color="#77b122" fill="#77b122"/><path d="m393 0h-378c-8.285156 0-15 6.714844-15 15v482c0 8.285156 6.714844 15 15 15h378c8.285156 0 15-6.714844 15-15v-482c0-8.285156-6.714844-15-15-15zm-83 54.539062 43.460938 43.460938h-43.460938zm68 25.574219-50.113281-50.113281h50.113281zm-348 401.886719v-452h250v83c0 8.285156 6.714844 15 15 15h83v354zm0 0" data-original="#000000" class="active-path" data-old_color="#77b122" fill="#77b122"/></g> </svg>
